<?xml version="1.0"?>
<svg width="512" height="512" xmlns="http://www.w3.org/2000/svg" xmlns:svg="http://www.w3.org/2000/svg" version="1.1" xml:space="preserve">
 <g class="layer">
  <title>Layer 1</title>
  <path d="m256,0c-141.38,0 -256,114.61 -256,256s114.61,256 256,256s256,-114.62 256,-256s-114.62,-256 -256,-256zm24.88,269.31l-96,64c-2.68,1.78 -5.78,2.69 -8.88,2.69c-2.59,0 -5.18,-0.62 -7.55,-1.89c-5.2,-2.79 -8.45,-8.21 -8.45,-14.11l0,-128c0,-5.9 3.25,-11.32 8.45,-14.11c5.2,-2.77 11.52,-2.48 16.43,0.8l96,64c4.45,2.97 7.12,7.96 7.12,13.31s-2.67,10.34 -7.12,13.31zm87.12,50.69c0,8.84 -7.16,16 -16,16l-16,0c-8.84,0 -16,-7.16 -16,-16l0,-128c0,-8.84 7.16,-16 16,-16l16,0c8.84,0 16,7.16 16,16l0,128z" id="svg_1" transform="rotate(180 256 256)"/>
 </g>

</svg>